<svg xmlns="http://www.w3.org/2000/svg" width="16.879" height="17.591" viewBox="0 0 16.879 17.591">
  <g id="coupon-icon" transform="translate(-10.359 0.002)">
    <g id="Group_8306" data-name="Group 8306" transform="translate(10.359 -0.002)">
      <g id="Group_8305" data-name="Group 8305">
        <path id="Path_23254" data-name="Path 23254" d="M26.424,9.021a.515.515,0,0,1,0-.456l.656-1.342A1.527,1.527,0,0,0,26.421,5.2L25.1,4.5a.516.516,0,0,1-.268-.369l-.258-1.471A1.527,1.527,0,0,0,22.851,1.4l-1.479.209a.515.515,0,0,1-.433-.141L19.864.432a1.527,1.527,0,0,0-2.132,0L16.659,1.471a.516.516,0,0,1-.433.141L14.746,1.4a1.527,1.527,0,0,0-1.725,1.253l-.258,1.471A.516.516,0,0,1,12.5,4.5l-1.32.7a1.527,1.527,0,0,0-.659,2.028l.656,1.342a.516.516,0,0,1,0,.456l-.656,1.342a1.527,1.527,0,0,0,.659,2.028l1.32.7a.516.516,0,0,1,.268.369l.258,1.471A1.526,1.526,0,0,0,14.526,16.2a1.569,1.569,0,0,0,.22-.016l1.479-.209a.515.515,0,0,1,.433.141l1.074,1.039a1.527,1.527,0,0,0,2.132,0l1.074-1.039a.516.516,0,0,1,.433-.141l1.479.209a1.527,1.527,0,0,0,1.725-1.253l.258-1.471a.516.516,0,0,1,.268-.369l1.32-.7a1.527,1.527,0,0,0,.659-2.028ZM25.946,11.5l-1.32.7a1.524,1.524,0,0,0-.792,1.09l-.258,1.471a.517.517,0,0,1-.584.424l-1.479-.209a1.523,1.523,0,0,0-1.281.416l-1.074,1.039a.517.517,0,0,1-.721,0l-1.074-1.039a1.522,1.522,0,0,0-1.063-.432,1.557,1.557,0,0,0-.218.015L14.6,15.18a.517.517,0,0,1-.584-.424l-.258-1.471a1.523,1.523,0,0,0-.792-1.09l-1.32-.7a.517.517,0,0,1-.223-.686l.656-1.342a1.524,1.524,0,0,0,0-1.347l-.656-1.342a.517.517,0,0,1,.223-.686l1.32-.7a1.524,1.524,0,0,0,.792-1.09l.258-1.471a.517.517,0,0,1,.584-.424l1.479.209A1.524,1.524,0,0,0,17.364,2.2l1.074-1.039a.517.517,0,0,1,.721,0L20.233,2.2a1.523,1.523,0,0,0,1.281.416l1.479-.209a.517.517,0,0,1,.584.424L23.834,4.3a1.523,1.523,0,0,0,.792,1.09l1.32.7a.517.517,0,0,1,.223.686L25.512,8.12a1.524,1.524,0,0,0,0,1.347l.656,1.342A.517.517,0,0,1,25.946,11.5Z" transform="translate(-10.359 0.002)" fill="#dbbc52"/>
      </g>
    </g>
    <g id="Group_8308" data-name="Group 8308" transform="translate(14.943 4.938)">
      <g id="Group_8307" data-name="Group 8307">
        <path id="Path_23255" data-name="Path 23255" d="M151.353,143.94a.507.507,0,0,0-.717,0l-6.7,6.7a.507.507,0,1,0,.717.717l6.7-6.7A.507.507,0,0,0,151.353,143.94Z" transform="translate(-143.792 -143.792)" fill="#dbbc52"/>
      </g>
    </g>
    <g id="Group_8310" data-name="Group 8310" transform="translate(14.909 4.228)">
      <g id="Group_8309" data-name="Group 8309">
        <path id="Path_23256" data-name="Path 23256" d="M144.662,123.116a1.86,1.86,0,1,0,1.86,1.86A1.862,1.862,0,0,0,144.662,123.116Zm0,2.705a.845.845,0,1,1,.845-.845A.846.846,0,0,1,144.662,125.821Z" transform="translate(-142.802 -123.116)" fill="#dbbc52"/>
      </g>
    </g>
    <g id="Group_8312" data-name="Group 8312" transform="translate(18.967 9.639)">
      <g id="Group_8311" data-name="Group 8311">
        <path id="Path_23257" data-name="Path 23257" d="M262.782,280.61a1.86,1.86,0,1,0,1.86,1.86A1.862,1.862,0,0,0,262.782,280.61Zm0,2.705a.845.845,0,1,1,.845-.845A.846.846,0,0,1,262.782,283.315Z" transform="translate(-260.922 -280.61)" fill="#dbbc52"/>
      </g>
    </g>
  </g>
</svg>
