<?xml version="1.0" encoding="utf-8"?>
<!-- Generator: Adobe Illustrator 23.0.0, SVG Export Plug-In . SVG Version: 6.00 Build 0)  -->
<svg version="1.1" id="Layer_1" xmlns="http://www.w3.org/2000/svg" xmlns:xlink="http://www.w3.org/1999/xlink" x="0px" y="0px"
	 viewBox="0 0 71.3 55.9" style="enable-background:new 0 0 71.3 55.9;" xml:space="preserve">
<style type="text/css">
	.st0{fill:#E0C257;}
</style>
<g id="Group_11822" transform="translate(-155.989 -750.073)">
	<g id="Group_8292" transform="translate(2 -12)">
		<g transform="matrix(1, 0, 0, 1, 153.99, 762.07)">
			<path class="st0" d="M53.9,6.7C42.1,2.7,29.4,9,25.4,20.8c-1.5,2.7-4.8,6.3-11.2,7.8c-0.3-1.4-1.5-2.4-2.9-2.4
				c-1.6,0-2.9,1.3-3,2.9c-2.8,0-3.6,0,0,0.2c0,0,0,0,0,0c-3.6,0.2-2.8,0.3,0,0.3c0.2,1.4,1.4,2.5,2.9,2.5c1.4,0,2.6-1,2.9-2.3
				c10.6,2,12.5,8.8,12.5,8.8l0.1-0.3c2.7,5.1,7.2,9,12.7,10.8C51.3,53.1,64,46.8,68,35.1C71.9,23.3,65.6,10.6,53.9,6.7z M55.4,30
				h-0.3v6.7c0,1.3-1.1,2.4-2.4,2.4h-3.6c-0.4,0-0.7-0.3-0.7-0.7v-5.3c0-0.6-0.5-1.1-1.1-1.1h-2.1c-0.6,0-1.1,0.5-1.1,1.1v5.3
				c0,0.4-0.3,0.7-0.7,0.7h-3.6c-1.3,0-2.4-1.1-2.4-2.4V30H37c-0.5,0-1-0.2-1.4-0.6c-0.8-0.8-0.8-2.1,0-2.9l0,0l9.1-9.2
				c0.8-0.8,2.1-0.8,2.9,0l9.2,9.2c0.4,0.4,0.6,0.9,0.6,1.5C57.5,29.1,56.6,30,55.4,30z"/>
		</g>
		<ellipse id="Ellipse_33" class="st0" cx="155.9" cy="791.2" rx="1.8" ry="2.4"/>
	</g>
</g>
</svg>
