<svg xmlns="http://www.w3.org/2000/svg" width="18.037" height="15.853" viewBox="0 0 18.037 15.853">
  <g id="footer-web-series" transform="translate(0 -31)">
    <path id="Path_23233" data-name="Path 23233" d="M18.037,43.682H16.98V34.171h1.057V31H0v3.171H1.057v9.512H0v3.171H18.037ZM16.98,33.114h-1.8V32.057h1.8Zm-13.07,0V32.057H5.672v1.057Zm2.818-1.057H8.49v1.057H6.729Zm2.818,0h1.761v1.057H9.547Zm2.818,0h1.761v1.057H12.365Zm-11.308,0h1.8v1.057h-1.8Zm1.057,2.114h13.81v9.512H2.114ZM5.672,44.739V45.8H3.91V44.739Zm1.057,0H8.49V45.8H6.729Zm2.818,0h1.761V45.8H9.547Zm2.818,0h1.761V45.8H12.365Zm-11.308,0h1.8V45.8h-1.8ZM16.98,45.8h-1.8V44.739h1.8Z" fill="#e0c257"/>
    <path id="Path_23234" data-name="Path 23234" d="M211,167.972v6.2l4.652-3.1Zm1.057,1.975,1.689,1.126-1.689,1.126Z" transform="translate(-203.567 -132.147)" fill="#fff"/>
  </g>
</svg>
