<svg xmlns="http://www.w3.org/2000/svg" width="19.825" height="19.825" viewBox="0 0 19.825 19.825">
  <g id="footer-movie" transform="translate(-310 -186.28)">
    <path id="Path_23227" data-name="Path 23227" d="M318.231,186.28h1.416c.256.053.511.115.768.159a8.879,8.879,0,0,1,3.281,16.234c-.087.056-.164.129-.318.252,1.295,0,2.488-.005,3.682,0a2.633,2.633,0,0,1,2.677,2.012,1.457,1.457,0,0,0,.088.193v.974h-.8a2.084,2.084,0,0,1-.339-.586,1.5,1.5,0,0,0-1.712-1.446c-2.728,0-5.456.018-8.184,0a8.846,8.846,0,0,1-8.523-6.81c-.1-.44-.181-.887-.27-1.331v-1.416a3.75,3.75,0,0,0,.083-.381,8.857,8.857,0,0,1,6.68-7.562C317.247,186.451,317.741,186.375,318.231,186.28Zm.628,16.645a7.748,7.748,0,1,0-7.71-7.754A7.7,7.7,0,0,0,318.859,202.925Z" fill="#e0c257" fill-rule="evenodd"/>
    <path id="Path_23228" data-name="Path 23228" d="M384.513,305.169a2.534,2.534,0,1,1-2.557,2.535A2.509,2.509,0,0,1,384.513,305.169Zm-.01,1.111a1.422,1.422,0,0,0-.04,2.843,1.422,1.422,0,1,0,.04-2.843Z" transform="translate(-65.587 -108.366)" fill="#fff" fill-rule="evenodd"/>
    <path id="Path_23229" data-name="Path 23229" d="M433.966,260.788a2.534,2.534,0,1,1-2.5-2.553A2.514,2.514,0,0,1,433.966,260.788Zm-2.517-1.41a1.4,1.4,0,0,0-1.439,1.368,1.421,1.421,0,1,0,2.842.033A1.4,1.4,0,0,0,431.449,259.378Z" transform="translate(-108.373 -65.586)" fill="#fff" fill-rule="evenodd"/>
    <path id="Path_23230" data-name="Path 23230" d="M340.141,260.8a2.53,2.53,0,0,1-5.06-.023,2.53,2.53,0,1,1,5.06.023Zm-3.94-.018a1.42,1.42,0,0,0,1.4,1.414,1.44,1.44,0,0,0,1.431-1.442,1.391,1.391,0,0,0-1.437-1.371A1.37,1.37,0,0,0,336.2,260.784Z" transform="translate(-22.861 -65.594)" fill="#fff" fill-rule="evenodd"/>
    <path id="Path_23231" data-name="Path 23231" d="M384.47,216.424a2.531,2.531,0,1,1,2.559-2.488A2.506,2.506,0,0,1,384.47,216.424Zm-1.365-2.539a1.391,1.391,0,0,0,1.373,1.435,1.44,1.44,0,0,0,1.44-1.434,1.423,1.423,0,0,0-1.418-1.4A1.369,1.369,0,0,0,383.1,213.885Z" transform="translate(-65.592 -22.862)" fill="#fff" fill-rule="evenodd"/>
    <path id="Path_23232" data-name="Path 23232" d="M401.83,278.941a.839.839,0,0,1-.862-.854.86.86,0,0,1,.839-.84.84.84,0,0,1,.855.861A.818.818,0,0,1,401.83,278.941Z" transform="translate(-82.915 -82.914)" fill="#e0c257" fill-rule="evenodd"/>
  </g>
</svg>
