<svg xmlns="http://www.w3.org/2000/svg" width="17.853" height="17.853" viewBox="0 0 17.853 17.853">
  <g id="footer-livetv" transform="translate(0 0)">
    <path id="Path_23235" data-name="Path 23235" d="M16.283,3.138H10.189L12.434.892a.523.523,0,0,0-.74-.74L8.926,2.921,6.158.153a.523.523,0,0,0-.74.74L7.664,3.138H1.569A1.571,1.571,0,0,0,0,4.707v10.53a1.571,1.571,0,0,0,1.569,1.569H3.138v.523a.523.523,0,0,0,1.046,0v-.523h9.484v.523a.523.523,0,0,0,1.046,0v-.523h1.569a1.571,1.571,0,0,0,1.569-1.569V4.707A1.571,1.571,0,0,0,16.283,3.138Zm.523,12.1a.524.524,0,0,1-.523.523H1.569a.524.524,0,0,1-.523-.523V4.707a.524.524,0,0,1,.523-.523H16.283a.524.524,0,0,1,.523.523Z" transform="translate(0 0)" fill="#e2c65a"/>
    <path id="Path_23236" data-name="Path 23236" d="M71.053,150H60.523a.523.523,0,0,0-.523.523v8.438a.523.523,0,0,0,.523.523h10.53a.523.523,0,0,0,.523-.523v-8.438A.523.523,0,0,0,71.053,150Zm-.523,8.438H61.046v-7.392H70.53Z" transform="translate(-57.908 -144.77)" fill="#f9f9f9"/>
    <ellipse id="Ellipse_360" data-name="Ellipse 360" cx="1" cy="0.5" rx="1" ry="0.5" transform="translate(13.926 4.926)" fill="#e2c65a"/>
    <circle id="Ellipse_361" data-name="Ellipse 361" cx="1" cy="1" r="1" transform="translate(13.926 7.926)" fill="#e2c65a"/>
    <path id="Path_23237" data-name="Path 23237" d="M422.523,300a.523.523,0,0,0-.523.523v2.162a.523.523,0,0,0,1.046,0v-2.162A.523.523,0,0,0,422.523,300Z" transform="translate(-407.286 -289.54)" fill="#e2c65a"/>
  </g>
</svg>
