<svg xmlns="http://www.w3.org/2000/svg" width="16.265" height="14.753" viewBox="0 0 16.265 14.753">
  <g id="footer-fav" transform="translate(0 -22.543)">
    <path id="Path_23247" data-name="Path 23247" d="M11.523,22.543a4.69,4.69,0,0,0-2.154.517,4.778,4.778,0,0,0-1.237.911A4.779,4.779,0,0,0,6.9,23.06a4.69,4.69,0,0,0-2.154-.517A4.747,4.747,0,0,0,0,27.284C0,29.136.978,31.1,2.907,33.13a28.107,28.107,0,0,0,4.952,3.989l.273.176.273-.176a28.107,28.107,0,0,0,4.953-3.989c1.929-2.027,2.907-3.994,2.907-5.846A4.747,4.747,0,0,0,11.523,22.543Zm1.106,9.894a26.6,26.6,0,0,1-4.5,3.659,26.6,26.6,0,0,1-4.5-3.659c-1.745-1.834-2.63-3.567-2.63-5.152A3.735,3.735,0,0,1,7.73,25.043l.4.535.4-.535a3.735,3.735,0,0,1,6.724,2.241C15.258,28.869,14.374,30.6,12.629,32.437Z" transform="translate(0 0)" fill="#e0c257"/>
  </g>
</svg>
