<svg id="genre-menu" xmlns="http://www.w3.org/2000/svg" width="13.5" height="11.424" viewBox="0 0 13.5 11.424">
  <path id="Path_23244" data-name="Path 23244" d="M11.836,41.436H7.564a.645.645,0,0,1-.46-.192l-1.333-1.4a1.69,1.69,0,0,0-1.2-.484h-2.9A1.665,1.665,0,0,0,0,41.019v8.1A1.665,1.665,0,0,0,1.663,50.78H11.844A1.665,1.665,0,0,0,13.5,49.112V43.1A1.665,1.665,0,0,0,11.836,41.436Zm.646,7.678a.646.646,0,0,1-.641.649H1.663a.647.647,0,0,1-.646-.646v-8.1a.648.648,0,0,1,.646-.647H4.6a.642.642,0,0,1,.446.178l1.326,1.4a1.671,1.671,0,0,0,1.194.506h4.273a.647.647,0,0,1,.646.646v6.014Z" transform="translate(0 -39.356)" fill="#e0c257"/>
</svg>
