<svg xmlns="http://www.w3.org/2000/svg" width="39" height="39" viewBox="0 0 39 39">
  <g id="google-plus-icon" transform="translate(-213 -542)">
    <g id="Ellipse_367" data-name="Ellipse 367" transform="translate(216 548)" fill="#fff" stroke="#707070" stroke-width="1">
      <ellipse cx="17.5" cy="13.5" rx="17.5" ry="13.5" stroke="none"/>
      <ellipse cx="17.5" cy="13.5" rx="17" ry="13" fill="none"/>
    </g>
    <path id="google-plus_1_" data-name="google-plus (1)" d="M19.5,39A19.5,19.5,0,1,0,0,19.5,19.507,19.507,0,0,0,19.5,39Zm6.96-20.893h2.792v-2.79h2.792v2.792h2.767V20.9H32.043v2.792H29.252V20.9H26.46Zm-5.991-5.819-2.642,2.564c-3.38-3.3-9.956-.9-9.956,4.639,0,7.509,10.658,8.023,11.583,1.95H13.941V18.093h9.193c1.043,5.453-2.478,11.157-9.193,11.157v0a9.742,9.742,0,1,1,6.528-16.963Z" transform="translate(213 542)" fill="#f44336"/>
  </g>
</svg>
