<svg xmlns="http://www.w3.org/2000/svg" width="14.5" height="13.152" viewBox="0 0 14.5 13.152">
  <g id="heart_1_" data-name="heart (1)" transform="translate(0 -22.543)">
    <path id="Path_23247" data-name="Path 23247" d="M10.273,22.543A4.181,4.181,0,0,0,8.353,23a4.26,4.26,0,0,0-1.1.812A4.26,4.26,0,0,0,6.148,23a4.182,4.182,0,0,0-1.921-.461A4.232,4.232,0,0,0,0,26.77c0,1.651.872,3.4,2.591,5.212a25.058,25.058,0,0,0,4.415,3.556l.243.157.243-.157a25.058,25.058,0,0,0,4.415-3.556c1.72-1.807,2.591-3.561,2.591-5.212A4.232,4.232,0,0,0,10.273,22.543Zm.986,8.82A23.717,23.717,0,0,1,7.25,34.626a23.718,23.718,0,0,1-4.009-3.262C1.686,29.729.9,28.183.9,26.77a3.33,3.33,0,0,1,5.995-2l.359.477.359-.477a3.33,3.33,0,0,1,5.995,2C13.6,28.183,12.815,29.729,11.259,31.363Z" fill="#e0c257"/>
  </g>
</svg>
