<svg xmlns="http://www.w3.org/2000/svg" width="13.5" height="13.499" viewBox="0 0 13.5 13.499">
  <g id="language-menu" transform="translate(0 0.001)">
    <path id="Path_23240" data-name="Path 23240" d="M12.392,4.745H8.684c.012-.13.018-.262.018-.395A4.352,4.352,0,0,0,2.177.581a.264.264,0,1,0,.264.457,3.824,3.824,0,1,1,1.91,7.137,3.781,3.781,0,0,1-2.4-.845.264.264,0,0,0-.243-.047l-.7.183.274-.6A.264.264,0,0,0,1.258,6.6,3.826,3.826,0,0,1,1.04,2.436a.264.264,0,1,0-.456-.264,4.354,4.354,0,0,0,.158,4.61L.3,7.751a.264.264,0,0,0,.307.364l1.121-.293a4.35,4.35,0,0,0,3.228.837v2.309a1.109,1.109,0,0,0,1.107,1.107H9.793l1.667,1.364a.264.264,0,0,0,.431-.2v-1.16h.5A1.109,1.109,0,0,0,13.5,10.968V5.853a1.109,1.109,0,0,0-1.107-1.107Zm.58,6.222a.581.581,0,0,1-.58.58h-.765a.264.264,0,0,0-.264.264v.867l-1.3-1.065c-.072-.066-.135-.066-.276-.066H6.064a.581.581,0,0,1-.58-.58V8.551A4.366,4.366,0,0,0,8.6,5.273h3.789a.581.581,0,0,1,.58.58Zm0,0" fill="#e2c65a"/>
    <path id="Path_23241" data-name="Path 23241" d="M290.349,252.679a.264.264,0,0,0-.112-.5h-.108l-.85-1.938a.264.264,0,0,0-.483,0l-.85,1.938h-.108a.264.264,0,0,0-.112.5l-.317.722a.264.264,0,1,0,.483.212l.4-.908h1.495l.4.908a.264.264,0,1,0,.483-.212Zm-1.828-.5.516-1.176.516,1.176Zm0,0" transform="translate(-279.809 -243.488)" fill="#fff"/>
    <path id="Path_23242" data-name="Path 23242" d="M45.666,45.926a.264.264,0,1,0-.186-.077A.266.266,0,0,0,45.666,45.926Zm0,0" transform="translate(-44.205 -44.202)" fill="#e2c65a"/>
    <path id="Path_23243" data-name="Path 23243" d="M100.27,89.1a.264.264,0,1,0,.254.462,3.02,3.02,0,0,0,1.3-1.416,3.02,3.02,0,0,0,1.3,1.416.264.264,0,0,0,.254-.462,2.493,2.493,0,0,1-1.267-1.814h1.171a.264.264,0,0,0,0-.527h-1.2v-1.1a.264.264,0,1,0-.527,0v1.1h-.952a.264.264,0,1,0,0,.527h.924A2.493,2.493,0,0,1,100.27,89.1Zm0,0" transform="translate(-97.493 -83.144)" fill="#fff"/>
  </g>
</svg>
