<svg id="menu-icon" xmlns="http://www.w3.org/2000/svg" width="14" height="10.111" viewBox="0 0 14 10.111">
  <path id="Path_23223" data-name="Path 23223" d="M13.417,123.835H.583a.583.583,0,0,1,0-1.167H13.417a.583.583,0,0,1,0,1.167Zm0,0" transform="translate(0 -118.196)" fill="#dfc155"/>
  <path id="Path_23224" data-name="Path 23224" d="M13.417,1.167H.583A.583.583,0,0,1,.583,0H13.417a.583.583,0,0,1,0,1.167Zm0,0" fill="#dfc155"/>
  <path id="Path_23225" data-name="Path 23225" d="M13.417,246.5H.583a.583.583,0,1,1,0-1.167H13.417a.583.583,0,1,1,0,1.167Zm0,0" transform="translate(0 -236.388)" fill="#dfc155"/>
</svg>
