<svg xmlns="http://www.w3.org/2000/svg" width="13.385" height="13.387" viewBox="0 0 13.385 13.387">
  <path id="menu-home" d="M13.026,5.822h0L7.564.36a1.232,1.232,0,0,0-1.743,0L.363,5.818l-.006.006a1.232,1.232,0,0,0,.82,2.1l.038,0h.218v4.019a1.444,1.444,0,0,0,1.442,1.442H5.012a.392.392,0,0,0,.392-.392V9.843a.659.659,0,0,1,.658-.658h1.26a.659.659,0,0,1,.658.658v3.151a.392.392,0,0,0,.392.392h2.136a1.444,1.444,0,0,0,1.442-1.442V7.925h.2a1.232,1.232,0,0,0,.872-2.1Zm0,0" transform="translate(0 0.001)" fill="#dab84f"/>
</svg>
