<svg xmlns="http://www.w3.org/2000/svg" width="408.452" height="161.305" viewBox="0 0 408.452 161.305">
  <g id="music-signs" transform="translate(-588.65 -210.016)">
    <g id="Group_11779" data-name="Group 11779" opacity="0.3">
      <rect id="Rectangle_6715" data-name="Rectangle 6715" width="15.551" height="3.959" rx="0.916" transform="translate(588.65 367.361)" fill="#fff"/>
      <rect id="Rectangle_6716" data-name="Rectangle 6716" width="15.551" height="3.958" rx="0.916" transform="translate(588.65 361.067)" fill="#fff"/>
      <rect id="Rectangle_6717" data-name="Rectangle 6717" width="15.551" height="3.958" rx="0.916" transform="translate(588.65 354.773)" fill="#fff"/>
      <rect id="Rectangle_6718" data-name="Rectangle 6718" width="15.551" height="3.958" rx="0.916" transform="translate(588.65 348.478)" fill="#fff"/>
      <rect id="Rectangle_6719" data-name="Rectangle 6719" width="15.551" height="3.958" rx="0.916" transform="translate(588.65 342.185)" fill="#fff"/>
      <rect id="Rectangle_6720" data-name="Rectangle 6720" width="15.551" height="3.959" rx="0.916" transform="translate(588.65 335.89)" fill="#fff"/>
      <rect id="Rectangle_6721" data-name="Rectangle 6721" width="15.551" height="3.958" rx="0.916" transform="translate(588.65 329.596)" fill="#fff"/>
      <path id="Rectangle_6722" data-name="Rectangle 6722" d="M.916,0H14.635a.916.916,0,0,1,.916.916V3.042a.917.917,0,0,1-.917.917H.916A.916.916,0,0,1,0,3.043V.916A.916.916,0,0,1,.916,0Z" transform="translate(588.65 323.301)" fill="#fff"/>
      <rect id="Rectangle_6723" data-name="Rectangle 6723" width="15.551" height="3.958" rx="0.916" transform="translate(588.65 317.008)" fill="#fff"/>
      <rect id="Rectangle_6724" data-name="Rectangle 6724" width="15.551" height="3.958" rx="0.916" transform="translate(588.65 310.714)" fill="#fff"/>
      <rect id="Rectangle_6725" data-name="Rectangle 6725" width="15.551" height="3.958" rx="0.916" transform="translate(588.65 304.421)" fill="#fff"/>
      <rect id="Rectangle_6726" data-name="Rectangle 6726" width="15.551" height="3.958" rx="0.916" transform="translate(588.65 298.127)" fill="#fff"/>
      <rect id="Rectangle_6727" data-name="Rectangle 6727" width="15.551" height="3.958" rx="0.916" transform="translate(588.65 291.833)" fill="#fff"/>
      <rect id="Rectangle_6728" data-name="Rectangle 6728" width="15.551" height="3.958" rx="0.916" transform="translate(588.65 285.54)" fill="#fff"/>
      <rect id="Rectangle_6729" data-name="Rectangle 6729" width="15.551" height="3.958" rx="0.916" transform="translate(588.65 279.246)" fill="#fff"/>
      <rect id="Rectangle_6730" data-name="Rectangle 6730" width="15.551" height="3.958" rx="0.916" transform="translate(588.65 272.952)" fill="#fff"/>
      <rect id="Rectangle_6731" data-name="Rectangle 6731" width="15.551" height="3.958" rx="0.916" transform="translate(588.65 266.659)" fill="#fff"/>
      <rect id="Rectangle_6732" data-name="Rectangle 6732" width="15.551" height="3.958" rx="0.916" transform="translate(588.65 260.365)" fill="#fff"/>
      <rect id="Rectangle_6733" data-name="Rectangle 6733" width="15.551" height="3.958" rx="0.916" transform="translate(588.65 254.071)" fill="#fff"/>
    </g>
    <g id="Group_11780" data-name="Group 11780" opacity="0.3">
      <rect id="Rectangle_6734" data-name="Rectangle 6734" width="15.551" height="3.959" rx="0.916" transform="translate(610.479 367.361)" fill="#fff"/>
      <rect id="Rectangle_6735" data-name="Rectangle 6735" width="15.551" height="3.958" rx="0.916" transform="translate(610.479 361.067)" fill="#fff"/>
      <rect id="Rectangle_6736" data-name="Rectangle 6736" width="15.551" height="3.958" rx="0.916" transform="translate(610.479 354.773)" fill="#fff"/>
      <rect id="Rectangle_6737" data-name="Rectangle 6737" width="15.551" height="3.958" rx="0.916" transform="translate(610.479 348.478)" fill="#fff"/>
      <rect id="Rectangle_6738" data-name="Rectangle 6738" width="15.551" height="3.958" rx="0.916" transform="translate(610.479 342.185)" fill="#fff"/>
      <rect id="Rectangle_6739" data-name="Rectangle 6739" width="15.551" height="3.959" rx="0.916" transform="translate(610.479 335.89)" fill="#fff"/>
      <rect id="Rectangle_6740" data-name="Rectangle 6740" width="15.551" height="3.958" rx="0.916" transform="translate(610.479 329.596)" fill="#fff"/>
      <path id="Rectangle_6741" data-name="Rectangle 6741" d="M.916,0H14.635a.916.916,0,0,1,.916.916V3.042a.917.917,0,0,1-.917.917H.916A.916.916,0,0,1,0,3.043V.916A.916.916,0,0,1,.916,0Z" transform="translate(610.479 323.301)" fill="#fff"/>
      <rect id="Rectangle_6742" data-name="Rectangle 6742" width="15.551" height="3.958" rx="0.916" transform="translate(610.479 317.008)" fill="#fff"/>
      <rect id="Rectangle_6743" data-name="Rectangle 6743" width="15.551" height="3.958" rx="0.916" transform="translate(610.479 310.714)" fill="#fff"/>
      <rect id="Rectangle_6744" data-name="Rectangle 6744" width="15.551" height="3.958" rx="0.916" transform="translate(610.479 304.421)" fill="#fff"/>
    </g>
    <g id="Group_11781" data-name="Group 11781" opacity="0.3">
      <rect id="Rectangle_6745" data-name="Rectangle 6745" width="15.551" height="3.959" rx="0.916" transform="translate(632.307 367.361)" fill="#fff"/>
      <rect id="Rectangle_6746" data-name="Rectangle 6746" width="15.551" height="3.958" rx="0.916" transform="translate(632.307 361.067)" fill="#fff"/>
      <rect id="Rectangle_6747" data-name="Rectangle 6747" width="15.551" height="3.958" rx="0.916" transform="translate(632.307 354.773)" fill="#fff"/>
      <rect id="Rectangle_6748" data-name="Rectangle 6748" width="15.551" height="3.958" rx="0.916" transform="translate(632.307 348.478)" fill="#fff"/>
      <rect id="Rectangle_6749" data-name="Rectangle 6749" width="15.551" height="3.958" rx="0.916" transform="translate(632.307 342.185)" fill="#fff"/>
      <rect id="Rectangle_6750" data-name="Rectangle 6750" width="15.551" height="3.959" rx="0.916" transform="translate(632.307 335.89)" fill="#fff"/>
      <rect id="Rectangle_6751" data-name="Rectangle 6751" width="15.551" height="3.958" rx="0.916" transform="translate(632.307 329.596)" fill="#fff"/>
      <path id="Rectangle_6752" data-name="Rectangle 6752" d="M.916,0H14.635a.916.916,0,0,1,.916.916V3.042a.917.917,0,0,1-.917.917H.916A.916.916,0,0,1,0,3.043V.916A.916.916,0,0,1,.916,0Z" transform="translate(632.307 323.301)" fill="#fff"/>
      <rect id="Rectangle_6753" data-name="Rectangle 6753" width="15.551" height="3.958" rx="0.916" transform="translate(632.307 317.008)" fill="#fff"/>
      <rect id="Rectangle_6754" data-name="Rectangle 6754" width="15.551" height="3.958" rx="0.916" transform="translate(632.307 310.714)" fill="#fff"/>
      <rect id="Rectangle_6755" data-name="Rectangle 6755" width="15.551" height="3.958" rx="0.916" transform="translate(632.307 304.421)" fill="#fff"/>
      <rect id="Rectangle_6756" data-name="Rectangle 6756" width="15.551" height="3.958" rx="0.916" transform="translate(632.307 298.127)" fill="#fff"/>
      <rect id="Rectangle_6757" data-name="Rectangle 6757" width="15.551" height="3.958" rx="0.916" transform="translate(632.307 291.833)" fill="#fff"/>
      <rect id="Rectangle_6758" data-name="Rectangle 6758" width="15.551" height="3.958" rx="0.916" transform="translate(632.307 285.54)" fill="#fff"/>
      <rect id="Rectangle_6759" data-name="Rectangle 6759" width="15.551" height="3.958" rx="0.916" transform="translate(632.307 279.246)" fill="#fff"/>
      <rect id="Rectangle_6760" data-name="Rectangle 6760" width="15.551" height="3.958" rx="0.916" transform="translate(632.307 272.952)" fill="#fff"/>
    </g>
    <g id="Group_11782" data-name="Group 11782" opacity="0.3">
      <rect id="Rectangle_6761" data-name="Rectangle 6761" width="15.55" height="3.959" rx="0.916" transform="translate(654.135 367.361)" fill="#fff"/>
      <rect id="Rectangle_6762" data-name="Rectangle 6762" width="15.55" height="3.958" rx="0.916" transform="translate(654.135 361.067)" fill="#fff"/>
      <rect id="Rectangle_6763" data-name="Rectangle 6763" width="15.55" height="3.958" rx="0.916" transform="translate(654.135 354.773)" fill="#fff"/>
      <rect id="Rectangle_6764" data-name="Rectangle 6764" width="15.55" height="3.958" rx="0.916" transform="translate(654.135 348.478)" fill="#fff"/>
      <rect id="Rectangle_6765" data-name="Rectangle 6765" width="15.55" height="3.958" rx="0.916" transform="translate(654.135 342.185)" fill="#fff"/>
      <rect id="Rectangle_6766" data-name="Rectangle 6766" width="15.55" height="3.959" rx="0.916" transform="translate(654.135 335.89)" fill="#fff"/>
      <rect id="Rectangle_6767" data-name="Rectangle 6767" width="15.55" height="3.958" rx="0.916" transform="translate(654.135 329.596)" fill="#fff"/>
      <path id="Rectangle_6768" data-name="Rectangle 6768" d="M.916,0H14.634a.916.916,0,0,1,.916.916V3.042a.917.917,0,0,1-.917.917H.916A.916.916,0,0,1,0,3.043V.916A.916.916,0,0,1,.916,0Z" transform="translate(654.135 323.301)" fill="#fff"/>
      <rect id="Rectangle_6769" data-name="Rectangle 6769" width="15.55" height="3.958" rx="0.916" transform="translate(654.135 317.008)" fill="#fff"/>
      <rect id="Rectangle_6770" data-name="Rectangle 6770" width="15.55" height="3.958" rx="0.916" transform="translate(654.135 310.714)" fill="#fff"/>
      <rect id="Rectangle_6771" data-name="Rectangle 6771" width="15.55" height="3.958" rx="0.916" transform="translate(654.135 304.421)" fill="#fff"/>
      <rect id="Rectangle_6772" data-name="Rectangle 6772" width="15.55" height="3.958" rx="0.916" transform="translate(654.135 298.127)" fill="#fff"/>
      <rect id="Rectangle_6773" data-name="Rectangle 6773" width="15.55" height="3.958" rx="0.916" transform="translate(654.135 291.833)" fill="#fff"/>
      <rect id="Rectangle_6774" data-name="Rectangle 6774" width="15.55" height="3.958" rx="0.916" transform="translate(654.135 285.54)" fill="#fff"/>
      <rect id="Rectangle_6775" data-name="Rectangle 6775" width="15.55" height="3.958" rx="0.916" transform="translate(654.135 279.246)" fill="#fff"/>
      <rect id="Rectangle_6776" data-name="Rectangle 6776" width="15.55" height="3.958" rx="0.916" transform="translate(654.135 272.952)" fill="#fff"/>
      <rect id="Rectangle_6777" data-name="Rectangle 6777" width="15.55" height="3.958" rx="0.916" transform="translate(654.135 266.659)" fill="#fff"/>
      <rect id="Rectangle_6778" data-name="Rectangle 6778" width="15.55" height="3.958" rx="0.916" transform="translate(654.135 260.365)" fill="#fff"/>
      <rect id="Rectangle_6779" data-name="Rectangle 6779" width="15.55" height="3.958" rx="0.916" transform="translate(654.135 254.071)" fill="#fff"/>
      <rect id="Rectangle_6780" data-name="Rectangle 6780" width="15.55" height="3.958" rx="0.916" transform="translate(654.135 247.777)" fill="#fff"/>
      <rect id="Rectangle_6781" data-name="Rectangle 6781" width="15.55" height="3.958" rx="0.916" transform="translate(654.135 241.484)" fill="#fff"/>
      <rect id="Rectangle_6782" data-name="Rectangle 6782" width="15.55" height="3.958" rx="0.916" transform="translate(654.135 235.19)" fill="#fff"/>
      <rect id="Rectangle_6783" data-name="Rectangle 6783" width="15.55" height="3.958" rx="0.916" transform="translate(654.135 228.896)" fill="#fff"/>
      <rect id="Rectangle_6784" data-name="Rectangle 6784" width="15.55" height="3.958" rx="0.916" transform="translate(654.135 222.602)" fill="#fff"/>
      <rect id="Rectangle_6785" data-name="Rectangle 6785" width="15.55" height="3.958" rx="0.916" transform="translate(654.135 216.309)" fill="#fff"/>
      <rect id="Rectangle_6786" data-name="Rectangle 6786" width="15.55" height="3.958" rx="0.916" transform="translate(654.135 210.016)" fill="#fff"/>
    </g>
    <g id="Group_11783" data-name="Group 11783" opacity="0.3">
      <rect id="Rectangle_6787" data-name="Rectangle 6787" width="15.551" height="3.959" rx="0.916" transform="translate(675.962 367.361)" fill="#fff"/>
      <rect id="Rectangle_6788" data-name="Rectangle 6788" width="15.551" height="3.958" rx="0.916" transform="translate(675.962 361.067)" fill="#fff"/>
      <rect id="Rectangle_6789" data-name="Rectangle 6789" width="15.551" height="3.958" rx="0.916" transform="translate(675.962 354.773)" fill="#fff"/>
      <rect id="Rectangle_6790" data-name="Rectangle 6790" width="15.551" height="3.958" rx="0.916" transform="translate(675.962 348.478)" fill="#fff"/>
      <rect id="Rectangle_6791" data-name="Rectangle 6791" width="15.551" height="3.958" rx="0.916" transform="translate(675.962 342.185)" fill="#fff"/>
    </g>
    <g id="Group_11784" data-name="Group 11784" opacity="0.3">
      <rect id="Rectangle_6792" data-name="Rectangle 6792" width="15.551" height="3.959" rx="0.916" transform="translate(697.79 367.361)" fill="#fff"/>
      <rect id="Rectangle_6793" data-name="Rectangle 6793" width="15.551" height="3.958" rx="0.916" transform="translate(697.79 361.067)" fill="#fff"/>
      <rect id="Rectangle_6794" data-name="Rectangle 6794" width="15.551" height="3.958" rx="0.916" transform="translate(697.79 354.773)" fill="#fff"/>
      <rect id="Rectangle_6795" data-name="Rectangle 6795" width="15.551" height="3.958" rx="0.916" transform="translate(697.79 348.478)" fill="#fff"/>
      <rect id="Rectangle_6796" data-name="Rectangle 6796" width="15.551" height="3.958" rx="0.916" transform="translate(697.79 342.185)" fill="#fff"/>
      <rect id="Rectangle_6797" data-name="Rectangle 6797" width="15.551" height="3.959" rx="0.916" transform="translate(697.79 335.89)" fill="#fff"/>
      <rect id="Rectangle_6798" data-name="Rectangle 6798" width="15.551" height="3.958" rx="0.916" transform="translate(697.79 329.596)" fill="#fff"/>
      <path id="Rectangle_6799" data-name="Rectangle 6799" d="M.916,0H14.635a.916.916,0,0,1,.916.916V3.042a.917.917,0,0,1-.917.917H.916A.916.916,0,0,1,0,3.043V.916A.916.916,0,0,1,.916,0Z" transform="translate(697.79 323.301)" fill="#fff"/>
      <rect id="Rectangle_6800" data-name="Rectangle 6800" width="15.551" height="3.958" rx="0.916" transform="translate(697.79 317.008)" fill="#fff"/>
    </g>
    <g id="Group_11785" data-name="Group 11785" opacity="0.3">
      <rect id="Rectangle_6801" data-name="Rectangle 6801" width="15.55" height="3.959" rx="0.916" transform="translate(719.618 367.361)" fill="#fff"/>
      <rect id="Rectangle_6802" data-name="Rectangle 6802" width="15.55" height="3.958" rx="0.916" transform="translate(719.618 361.067)" fill="#fff"/>
      <rect id="Rectangle_6803" data-name="Rectangle 6803" width="15.55" height="3.958" rx="0.916" transform="translate(719.618 354.773)" fill="#fff"/>
      <rect id="Rectangle_6804" data-name="Rectangle 6804" width="15.55" height="3.958" rx="0.916" transform="translate(719.618 348.478)" fill="#fff"/>
      <rect id="Rectangle_6805" data-name="Rectangle 6805" width="15.55" height="3.958" rx="0.916" transform="translate(719.618 342.185)" fill="#fff"/>
      <rect id="Rectangle_6806" data-name="Rectangle 6806" width="15.55" height="3.959" rx="0.916" transform="translate(719.618 335.89)" fill="#fff"/>
      <rect id="Rectangle_6807" data-name="Rectangle 6807" width="15.55" height="3.958" rx="0.916" transform="translate(719.618 329.596)" fill="#fff"/>
      <path id="Rectangle_6808" data-name="Rectangle 6808" d="M.916,0H14.634a.916.916,0,0,1,.916.916V3.042a.917.917,0,0,1-.917.917H.916A.916.916,0,0,1,0,3.043V.916A.916.916,0,0,1,.916,0Z" transform="translate(719.618 323.301)" fill="#fff"/>
      <rect id="Rectangle_6809" data-name="Rectangle 6809" width="15.55" height="3.958" rx="0.916" transform="translate(719.618 317.008)" fill="#fff"/>
      <rect id="Rectangle_6810" data-name="Rectangle 6810" width="15.55" height="3.958" rx="0.916" transform="translate(719.618 310.714)" fill="#fff"/>
      <rect id="Rectangle_6811" data-name="Rectangle 6811" width="15.55" height="3.958" rx="0.916" transform="translate(719.618 304.421)" fill="#fff"/>
      <rect id="Rectangle_6812" data-name="Rectangle 6812" width="15.55" height="3.958" rx="0.916" transform="translate(719.618 298.127)" fill="#fff"/>
      <rect id="Rectangle_6813" data-name="Rectangle 6813" width="15.55" height="3.958" rx="0.916" transform="translate(719.618 291.833)" fill="#fff"/>
      <rect id="Rectangle_6814" data-name="Rectangle 6814" width="15.55" height="3.958" rx="0.916" transform="translate(719.618 285.54)" fill="#fff"/>
      <rect id="Rectangle_6815" data-name="Rectangle 6815" width="15.55" height="3.958" rx="0.916" transform="translate(719.618 279.246)" fill="#fff"/>
      <rect id="Rectangle_6816" data-name="Rectangle 6816" width="15.55" height="3.958" rx="0.916" transform="translate(719.618 272.952)" fill="#fff"/>
    </g>
    <g id="Group_11786" data-name="Group 11786" opacity="0.3">
      <rect id="Rectangle_6817" data-name="Rectangle 6817" width="15.551" height="3.959" rx="0.916" transform="translate(741.445 367.361)" fill="#fff"/>
      <rect id="Rectangle_6818" data-name="Rectangle 6818" width="15.551" height="3.958" rx="0.916" transform="translate(741.445 361.067)" fill="#fff"/>
      <rect id="Rectangle_6819" data-name="Rectangle 6819" width="15.551" height="3.958" rx="0.916" transform="translate(741.445 354.773)" fill="#fff"/>
      <rect id="Rectangle_6820" data-name="Rectangle 6820" width="15.551" height="3.958" rx="0.916" transform="translate(741.445 348.478)" fill="#fff"/>
      <rect id="Rectangle_6821" data-name="Rectangle 6821" width="15.551" height="3.958" rx="0.916" transform="translate(741.445 342.185)" fill="#fff"/>
      <rect id="Rectangle_6822" data-name="Rectangle 6822" width="15.551" height="3.959" rx="0.916" transform="translate(741.445 335.89)" fill="#fff"/>
      <rect id="Rectangle_6823" data-name="Rectangle 6823" width="15.551" height="3.958" rx="0.916" transform="translate(741.445 329.596)" fill="#fff"/>
      <path id="Rectangle_6824" data-name="Rectangle 6824" d="M.916,0H14.635a.916.916,0,0,1,.916.916V3.042a.917.917,0,0,1-.917.917H.916A.916.916,0,0,1,0,3.043V.916A.916.916,0,0,1,.916,0Z" transform="translate(741.445 323.301)" fill="#fff"/>
      <rect id="Rectangle_6825" data-name="Rectangle 6825" width="15.551" height="3.958" rx="0.916" transform="translate(741.445 317.008)" fill="#fff"/>
      <rect id="Rectangle_6826" data-name="Rectangle 6826" width="15.551" height="3.958" rx="0.916" transform="translate(741.445 310.714)" fill="#fff"/>
      <rect id="Rectangle_6827" data-name="Rectangle 6827" width="15.551" height="3.958" rx="0.916" transform="translate(741.445 304.421)" fill="#fff"/>
      <rect id="Rectangle_6828" data-name="Rectangle 6828" width="15.551" height="3.958" rx="0.916" transform="translate(741.445 298.127)" fill="#fff"/>
      <rect id="Rectangle_6829" data-name="Rectangle 6829" width="15.551" height="3.958" rx="0.916" transform="translate(741.445 291.833)" fill="#fff"/>
      <rect id="Rectangle_6830" data-name="Rectangle 6830" width="15.551" height="3.958" rx="0.916" transform="translate(741.445 285.54)" fill="#fff"/>
    </g>
    <g id="Group_11787" data-name="Group 11787" opacity="0.3">
      <rect id="Rectangle_6831" data-name="Rectangle 6831" width="15.551" height="3.959" rx="0.916" transform="translate(763.273 367.361)" fill="#fff"/>
      <rect id="Rectangle_6832" data-name="Rectangle 6832" width="15.551" height="3.958" rx="0.916" transform="translate(763.273 361.067)" fill="#fff"/>
      <rect id="Rectangle_6833" data-name="Rectangle 6833" width="15.551" height="3.958" rx="0.916" transform="translate(763.273 354.773)" fill="#fff"/>
      <rect id="Rectangle_6834" data-name="Rectangle 6834" width="15.551" height="3.958" rx="0.916" transform="translate(763.273 348.478)" fill="#fff"/>
      <rect id="Rectangle_6835" data-name="Rectangle 6835" width="15.551" height="3.958" rx="0.916" transform="translate(763.273 342.185)" fill="#fff"/>
      <rect id="Rectangle_6836" data-name="Rectangle 6836" width="15.551" height="3.959" rx="0.916" transform="translate(763.273 335.89)" fill="#fff"/>
      <rect id="Rectangle_6837" data-name="Rectangle 6837" width="15.551" height="3.958" rx="0.916" transform="translate(763.273 329.596)" fill="#fff"/>
      <path id="Rectangle_6838" data-name="Rectangle 6838" d="M.916,0H14.635a.916.916,0,0,1,.916.916V3.042a.917.917,0,0,1-.917.917H.916A.916.916,0,0,1,0,3.043V.916A.916.916,0,0,1,.916,0Z" transform="translate(763.273 323.301)" fill="#fff"/>
      <rect id="Rectangle_6839" data-name="Rectangle 6839" width="15.551" height="3.958" rx="0.916" transform="translate(763.273 317.008)" fill="#fff"/>
      <rect id="Rectangle_6840" data-name="Rectangle 6840" width="15.551" height="3.958" rx="0.916" transform="translate(763.273 310.714)" fill="#fff"/>
      <rect id="Rectangle_6841" data-name="Rectangle 6841" width="15.551" height="3.958" rx="0.916" transform="translate(763.273 304.421)" fill="#fff"/>
      <rect id="Rectangle_6842" data-name="Rectangle 6842" width="15.551" height="3.958" rx="0.916" transform="translate(763.273 298.127)" fill="#fff"/>
      <rect id="Rectangle_6843" data-name="Rectangle 6843" width="15.551" height="3.958" rx="0.916" transform="translate(763.273 291.833)" fill="#fff"/>
      <rect id="Rectangle_6844" data-name="Rectangle 6844" width="15.551" height="3.958" rx="0.916" transform="translate(763.273 285.54)" fill="#fff"/>
      <rect id="Rectangle_6845" data-name="Rectangle 6845" width="15.551" height="3.958" rx="0.916" transform="translate(763.273 279.246)" fill="#fff"/>
      <rect id="Rectangle_6846" data-name="Rectangle 6846" width="15.551" height="3.958" rx="0.916" transform="translate(763.273 272.952)" fill="#fff"/>
      <rect id="Rectangle_6847" data-name="Rectangle 6847" width="15.551" height="3.958" rx="0.916" transform="translate(763.273 266.659)" fill="#fff"/>
      <rect id="Rectangle_6848" data-name="Rectangle 6848" width="15.551" height="3.958" rx="0.916" transform="translate(763.273 260.365)" fill="#fff"/>
      <rect id="Rectangle_6849" data-name="Rectangle 6849" width="15.551" height="3.958" rx="0.916" transform="translate(763.273 254.071)" fill="#fff"/>
      <rect id="Rectangle_6850" data-name="Rectangle 6850" width="15.551" height="3.958" rx="0.916" transform="translate(763.273 247.777)" fill="#fff"/>
    </g>
    <g id="Group_11788" data-name="Group 11788" opacity="0.3">
      <path id="Rectangle_6851" data-name="Rectangle 6851" d="M.916,0H14.634a.917.917,0,0,1,.917.917V3.043a.916.916,0,0,1-.916.916H.916A.916.916,0,0,1,0,3.043V.916A.916.916,0,0,1,.916,0Z" transform="translate(785.102 367.361)" fill="#fff"/>
      <path id="Rectangle_6852" data-name="Rectangle 6852" d="M.916,0H14.634a.917.917,0,0,1,.917.917V3.042a.916.916,0,0,1-.916.916H.916A.916.916,0,0,1,0,3.042V.916A.916.916,0,0,1,.916,0Z" transform="translate(785.102 361.067)" fill="#fff"/>
      <path id="Rectangle_6853" data-name="Rectangle 6853" d="M.916,0H14.634a.917.917,0,0,1,.917.917V3.042a.916.916,0,0,1-.916.916H.916A.916.916,0,0,1,0,3.042V.916A.916.916,0,0,1,.916,0Z" transform="translate(785.102 354.773)" fill="#fff"/>
      <path id="Rectangle_6854" data-name="Rectangle 6854" d="M.916,0H14.634a.917.917,0,0,1,.917.917V3.042a.916.916,0,0,1-.916.916H.916A.916.916,0,0,1,0,3.042V.916A.916.916,0,0,1,.916,0Z" transform="translate(785.102 348.478)" fill="#fff"/>
      <path id="Rectangle_6855" data-name="Rectangle 6855" d="M.916,0H14.634a.917.917,0,0,1,.917.917V3.042a.916.916,0,0,1-.916.916H.916A.916.916,0,0,1,0,3.042V.916A.916.916,0,0,1,.916,0Z" transform="translate(785.102 342.185)" fill="#fff"/>
      <path id="Rectangle_6856" data-name="Rectangle 6856" d="M.916,0H14.634a.917.917,0,0,1,.917.917V3.043a.916.916,0,0,1-.916.916H.916A.916.916,0,0,1,0,3.043V.916A.916.916,0,0,1,.916,0Z" transform="translate(785.102 335.89)" fill="#fff"/>
      <path id="Rectangle_6857" data-name="Rectangle 6857" d="M.916,0H14.634a.917.917,0,0,1,.917.917V3.042a.916.916,0,0,1-.916.916H.916A.916.916,0,0,1,0,3.042V.916A.916.916,0,0,1,.916,0Z" transform="translate(785.102 329.596)" fill="#fff"/>
      <path id="Rectangle_6858" data-name="Rectangle 6858" d="M.916,0H14.634a.917.917,0,0,1,.917.917V3.042a.917.917,0,0,1-.917.917H.916A.916.916,0,0,1,0,3.043V.916A.916.916,0,0,1,.916,0Z" transform="translate(785.102 323.301)" fill="#fff"/>
      <path id="Rectangle_6859" data-name="Rectangle 6859" d="M.916,0H14.634a.917.917,0,0,1,.917.917V3.042a.916.916,0,0,1-.916.916H.916A.916.916,0,0,1,0,3.042V.916A.916.916,0,0,1,.916,0Z" transform="translate(785.102 317.008)" fill="#fff"/>
      <path id="Rectangle_6860" data-name="Rectangle 6860" d="M.916,0H14.634a.917.917,0,0,1,.917.917V3.042a.916.916,0,0,1-.916.916H.916A.916.916,0,0,1,0,3.042V.916A.916.916,0,0,1,.916,0Z" transform="translate(785.102 310.714)" fill="#fff"/>
    </g>
    <g id="Group_11789" data-name="Group 11789" opacity="0.3">
      <rect id="Rectangle_6861" data-name="Rectangle 6861" width="15.55" height="3.959" rx="0.916" transform="translate(806.93 367.361)" fill="#fff"/>
      <rect id="Rectangle_6862" data-name="Rectangle 6862" width="15.55" height="3.958" rx="0.916" transform="translate(806.93 361.067)" fill="#fff"/>
    </g>
    <g id="Group_11790" data-name="Group 11790" opacity="0.3">
      <rect id="Rectangle_6863" data-name="Rectangle 6863" width="15.551" height="3.959" rx="0.916" transform="translate(828.757 367.361)" fill="#fff"/>
      <rect id="Rectangle_6864" data-name="Rectangle 6864" width="15.551" height="3.958" rx="0.916" transform="translate(828.757 361.067)" fill="#fff"/>
      <rect id="Rectangle_6865" data-name="Rectangle 6865" width="15.551" height="3.958" rx="0.916" transform="translate(828.757 354.773)" fill="#fff"/>
      <rect id="Rectangle_6866" data-name="Rectangle 6866" width="15.551" height="3.958" rx="0.916" transform="translate(828.757 348.478)" fill="#fff"/>
      <rect id="Rectangle_6867" data-name="Rectangle 6867" width="15.551" height="3.958" rx="0.916" transform="translate(828.757 342.185)" fill="#fff"/>
      <rect id="Rectangle_6868" data-name="Rectangle 6868" width="15.551" height="3.959" rx="0.916" transform="translate(828.757 335.89)" fill="#fff"/>
      <rect id="Rectangle_6869" data-name="Rectangle 6869" width="15.551" height="3.958" rx="0.916" transform="translate(828.757 329.596)" fill="#fff"/>
      <path id="Rectangle_6870" data-name="Rectangle 6870" d="M.916,0H14.635a.916.916,0,0,1,.916.916V3.042a.917.917,0,0,1-.917.917H.916A.916.916,0,0,1,0,3.043V.916A.916.916,0,0,1,.916,0Z" transform="translate(828.757 323.301)" fill="#fff"/>
      <rect id="Rectangle_6871" data-name="Rectangle 6871" width="15.551" height="3.958" rx="0.916" transform="translate(828.757 317.008)" fill="#fff"/>
      <rect id="Rectangle_6872" data-name="Rectangle 6872" width="15.551" height="3.958" rx="0.916" transform="translate(828.757 310.714)" fill="#fff"/>
      <rect id="Rectangle_6873" data-name="Rectangle 6873" width="15.551" height="3.958" rx="0.916" transform="translate(828.757 304.421)" fill="#fff"/>
      <rect id="Rectangle_6874" data-name="Rectangle 6874" width="15.551" height="3.958" rx="0.916" transform="translate(828.757 298.127)" fill="#fff"/>
      <rect id="Rectangle_6875" data-name="Rectangle 6875" width="15.551" height="3.958" rx="0.916" transform="translate(828.757 291.833)" fill="#fff"/>
      <rect id="Rectangle_6876" data-name="Rectangle 6876" width="15.551" height="3.958" rx="0.916" transform="translate(828.757 285.54)" fill="#fff"/>
      <rect id="Rectangle_6877" data-name="Rectangle 6877" width="15.551" height="3.958" rx="0.916" transform="translate(828.757 279.246)" fill="#fff"/>
      <rect id="Rectangle_6878" data-name="Rectangle 6878" width="15.551" height="3.958" rx="0.916" transform="translate(828.757 272.952)" fill="#fff"/>
      <rect id="Rectangle_6879" data-name="Rectangle 6879" width="15.551" height="3.958" rx="0.916" transform="translate(828.757 266.659)" fill="#fff"/>
      <rect id="Rectangle_6880" data-name="Rectangle 6880" width="15.551" height="3.958" rx="0.916" transform="translate(828.757 260.365)" fill="#fff"/>
    </g>
    <g id="Group_11791" data-name="Group 11791" opacity="0.3">
      <rect id="Rectangle_6881" data-name="Rectangle 6881" width="15.551" height="3.959" rx="0.916" transform="translate(850.585 367.361)" fill="#fff"/>
      <rect id="Rectangle_6882" data-name="Rectangle 6882" width="15.551" height="3.958" rx="0.916" transform="translate(850.585 361.067)" fill="#fff"/>
      <rect id="Rectangle_6883" data-name="Rectangle 6883" width="15.551" height="3.958" rx="0.916" transform="translate(850.585 354.773)" fill="#fff"/>
      <rect id="Rectangle_6884" data-name="Rectangle 6884" width="15.551" height="3.958" rx="0.916" transform="translate(850.585 348.478)" fill="#fff"/>
      <rect id="Rectangle_6885" data-name="Rectangle 6885" width="15.551" height="3.958" rx="0.916" transform="translate(850.585 342.185)" fill="#fff"/>
      <rect id="Rectangle_6886" data-name="Rectangle 6886" width="15.551" height="3.959" rx="0.916" transform="translate(850.585 335.89)" fill="#fff"/>
      <rect id="Rectangle_6887" data-name="Rectangle 6887" width="15.551" height="3.958" rx="0.916" transform="translate(850.585 329.596)" fill="#fff"/>
      <path id="Rectangle_6888" data-name="Rectangle 6888" d="M.916,0H14.635a.916.916,0,0,1,.916.916V3.042a.917.917,0,0,1-.917.917H.916A.916.916,0,0,1,0,3.043V.916A.916.916,0,0,1,.916,0Z" transform="translate(850.585 323.301)" fill="#fff"/>
    </g>
    <g id="Group_11792" data-name="Group 11792" opacity="0.3">
      <rect id="Rectangle_6889" data-name="Rectangle 6889" width="15.55" height="3.959" rx="0.916" transform="translate(872.413 367.361)" fill="#fff"/>
      <rect id="Rectangle_6890" data-name="Rectangle 6890" width="15.55" height="3.958" rx="0.916" transform="translate(872.413 361.067)" fill="#fff"/>
      <rect id="Rectangle_6891" data-name="Rectangle 6891" width="15.55" height="3.958" rx="0.916" transform="translate(872.413 354.773)" fill="#fff"/>
      <rect id="Rectangle_6892" data-name="Rectangle 6892" width="15.55" height="3.958" rx="0.916" transform="translate(872.413 348.478)" fill="#fff"/>
      <rect id="Rectangle_6893" data-name="Rectangle 6893" width="15.55" height="3.958" rx="0.916" transform="translate(872.413 342.185)" fill="#fff"/>
      <rect id="Rectangle_6894" data-name="Rectangle 6894" width="15.55" height="3.959" rx="0.916" transform="translate(872.413 335.89)" fill="#fff"/>
      <rect id="Rectangle_6895" data-name="Rectangle 6895" width="15.55" height="3.958" rx="0.916" transform="translate(872.413 329.596)" fill="#fff"/>
      <path id="Rectangle_6896" data-name="Rectangle 6896" d="M.916,0H14.634a.916.916,0,0,1,.916.916V3.042a.917.917,0,0,1-.917.917H.916A.916.916,0,0,1,0,3.043V.916A.916.916,0,0,1,.916,0Z" transform="translate(872.413 323.301)" fill="#fff"/>
      <rect id="Rectangle_6897" data-name="Rectangle 6897" width="15.55" height="3.958" rx="0.916" transform="translate(872.413 317.008)" fill="#fff"/>
      <rect id="Rectangle_6898" data-name="Rectangle 6898" width="15.55" height="3.958" rx="0.916" transform="translate(872.413 310.714)" fill="#fff"/>
      <rect id="Rectangle_6899" data-name="Rectangle 6899" width="15.55" height="3.958" rx="0.916" transform="translate(872.413 304.421)" fill="#fff"/>
    </g>
    <g id="Group_11793" data-name="Group 11793" opacity="0.3">
      <rect id="Rectangle_6900" data-name="Rectangle 6900" width="15.551" height="3.959" rx="0.916" transform="translate(894.24 367.361)" fill="#fff"/>
      <rect id="Rectangle_6901" data-name="Rectangle 6901" width="15.551" height="3.958" rx="0.916" transform="translate(894.24 361.067)" fill="#fff"/>
      <rect id="Rectangle_6902" data-name="Rectangle 6902" width="15.551" height="3.958" rx="0.916" transform="translate(894.24 354.773)" fill="#fff"/>
      <rect id="Rectangle_6903" data-name="Rectangle 6903" width="15.551" height="3.958" rx="0.916" transform="translate(894.24 348.478)" fill="#fff"/>
    </g>
    <g id="Group_11794" data-name="Group 11794" opacity="0.3">
      <rect id="Rectangle_6904" data-name="Rectangle 6904" width="15.551" height="3.959" rx="0.916" transform="translate(916.068 367.361)" fill="#fff"/>
      <rect id="Rectangle_6905" data-name="Rectangle 6905" width="15.551" height="3.958" rx="0.916" transform="translate(916.068 361.067)" fill="#fff"/>
      <rect id="Rectangle_6906" data-name="Rectangle 6906" width="15.551" height="3.958" rx="0.916" transform="translate(916.068 354.773)" fill="#fff"/>
      <rect id="Rectangle_6907" data-name="Rectangle 6907" width="15.551" height="3.958" rx="0.916" transform="translate(916.068 348.478)" fill="#fff"/>
      <rect id="Rectangle_6908" data-name="Rectangle 6908" width="15.551" height="3.958" rx="0.916" transform="translate(916.068 342.185)" fill="#fff"/>
      <rect id="Rectangle_6909" data-name="Rectangle 6909" width="15.551" height="3.959" rx="0.916" transform="translate(916.068 335.89)" fill="#fff"/>
      <rect id="Rectangle_6910" data-name="Rectangle 6910" width="15.551" height="3.958" rx="0.916" transform="translate(916.068 329.596)" fill="#fff"/>
      <path id="Rectangle_6911" data-name="Rectangle 6911" d="M.916,0H14.635a.916.916,0,0,1,.916.916V3.042a.917.917,0,0,1-.917.917H.916A.916.916,0,0,1,0,3.043V.916A.916.916,0,0,1,.916,0Z" transform="translate(916.068 323.301)" fill="#fff"/>
    </g>
    <g id="Group_11795" data-name="Group 11795" opacity="0.3">
      <rect id="Rectangle_6912" data-name="Rectangle 6912" width="15.551" height="3.959" rx="0.916" transform="translate(937.896 367.361)" fill="#fff"/>
      <rect id="Rectangle_6913" data-name="Rectangle 6913" width="15.551" height="3.958" rx="0.916" transform="translate(937.896 361.067)" fill="#fff"/>
      <rect id="Rectangle_6914" data-name="Rectangle 6914" width="15.551" height="3.958" rx="0.916" transform="translate(937.896 354.773)" fill="#fff"/>
      <rect id="Rectangle_6915" data-name="Rectangle 6915" width="15.551" height="3.958" rx="0.916" transform="translate(937.896 348.478)" fill="#fff"/>
      <rect id="Rectangle_6916" data-name="Rectangle 6916" width="15.551" height="3.958" rx="0.916" transform="translate(937.896 342.185)" fill="#fff"/>
      <rect id="Rectangle_6917" data-name="Rectangle 6917" width="15.551" height="3.959" rx="0.916" transform="translate(937.896 335.89)" fill="#fff"/>
      <rect id="Rectangle_6918" data-name="Rectangle 6918" width="15.551" height="3.958" rx="0.916" transform="translate(937.896 329.596)" fill="#fff"/>
      <path id="Rectangle_6919" data-name="Rectangle 6919" d="M.916,0H14.635a.916.916,0,0,1,.916.916V3.042a.917.917,0,0,1-.917.917H.916A.916.916,0,0,1,0,3.043V.916A.916.916,0,0,1,.916,0Z" transform="translate(937.896 323.301)" fill="#fff"/>
      <rect id="Rectangle_6920" data-name="Rectangle 6920" width="15.551" height="3.958" rx="0.916" transform="translate(937.896 317.008)" fill="#fff"/>
      <rect id="Rectangle_6921" data-name="Rectangle 6921" width="15.551" height="3.958" rx="0.916" transform="translate(937.896 310.714)" fill="#fff"/>
      <rect id="Rectangle_6922" data-name="Rectangle 6922" width="15.551" height="3.958" rx="0.916" transform="translate(937.896 304.421)" fill="#fff"/>
      <rect id="Rectangle_6923" data-name="Rectangle 6923" width="15.551" height="3.958" rx="0.916" transform="translate(937.896 298.127)" fill="#fff"/>
      <rect id="Rectangle_6924" data-name="Rectangle 6924" width="15.551" height="3.958" rx="0.916" transform="translate(937.896 291.833)" fill="#fff"/>
    </g>
    <g id="Group_11796" data-name="Group 11796" opacity="0.3">
      <rect id="Rectangle_6925" data-name="Rectangle 6925" width="15.55" height="3.959" rx="0.916" transform="translate(959.725 367.361)" fill="#fff"/>
      <rect id="Rectangle_6926" data-name="Rectangle 6926" width="15.55" height="3.958" rx="0.916" transform="translate(959.725 361.067)" fill="#fff"/>
      <rect id="Rectangle_6927" data-name="Rectangle 6927" width="15.55" height="3.958" rx="0.916" transform="translate(959.725 354.773)" fill="#fff"/>
      <rect id="Rectangle_6928" data-name="Rectangle 6928" width="15.55" height="3.958" rx="0.916" transform="translate(959.725 348.478)" fill="#fff"/>
      <rect id="Rectangle_6929" data-name="Rectangle 6929" width="15.55" height="3.958" rx="0.916" transform="translate(959.725 342.185)" fill="#fff"/>
      <rect id="Rectangle_6930" data-name="Rectangle 6930" width="15.55" height="3.959" rx="0.916" transform="translate(959.725 335.89)" fill="#fff"/>
      <rect id="Rectangle_6931" data-name="Rectangle 6931" width="15.55" height="3.958" rx="0.916" transform="translate(959.725 329.596)" fill="#fff"/>
      <path id="Rectangle_6932" data-name="Rectangle 6932" d="M.916,0H14.634a.916.916,0,0,1,.916.916V3.042a.917.917,0,0,1-.917.917H.916A.916.916,0,0,1,0,3.043V.916A.916.916,0,0,1,.916,0Z" transform="translate(959.725 323.301)" fill="#fff"/>
    </g>
    <g id="Group_11797" data-name="Group 11797" opacity="0.3">
      <rect id="Rectangle_6933" data-name="Rectangle 6933" width="15.551" height="3.959" rx="0.916" transform="translate(981.552 367.361)" fill="#fff"/>
      <rect id="Rectangle_6934" data-name="Rectangle 6934" width="15.551" height="3.958" rx="0.916" transform="translate(981.552 361.067)" fill="#fff"/>
      <rect id="Rectangle_6935" data-name="Rectangle 6935" width="15.551" height="3.958" rx="0.916" transform="translate(981.552 354.773)" fill="#fff"/>
      <rect id="Rectangle_6936" data-name="Rectangle 6936" width="15.551" height="3.958" rx="0.916" transform="translate(981.552 348.478)" fill="#fff"/>
    </g>
  </g>
</svg>
