<svg xmlns="http://www.w3.org/2000/svg" width="10.869" height="13.736" viewBox="0 0 10.869 13.736">
  <path id="notification-icon" d="M64.079,10.931a2.134,2.134,0,0,1-.649-.883,10.219,10.219,0,0,1-.676-4.038c0-.005,0-.01,0-.015A3.9,3.9,0,0,0,60.46,2.46V1.53A1.531,1.531,0,0,0,58.932,0h-.127a1.531,1.531,0,0,0-1.528,1.53v.93a3.9,3.9,0,0,0-2.295,3.55,10.219,10.219,0,0,1-.676,4.038,2.134,2.134,0,0,1-.649.883.391.391,0,0,0-.215.445.409.409,0,0,0,.4.315H56.8a2.072,2.072,0,0,0,4.144,0h2.95a.409.409,0,0,0,.4-.315A.391.391,0,0,0,64.079,10.931Zm-6-9.4a.724.724,0,0,1,.723-.724h.127a.724.724,0,0,1,.723.724V2.2a3.9,3.9,0,0,0-1.572,0V1.53Zm.786,11.4A1.27,1.27,0,0,1,57.6,11.691h2.534A1.27,1.27,0,0,1,58.869,12.93Zm1.62-2.045H54.764a4.218,4.218,0,0,0,.211-.37,10.189,10.189,0,0,0,.813-4.5,3.081,3.081,0,1,1,6.161,0s0,.01,0,.015a10.168,10.168,0,0,0,.813,4.488,4.221,4.221,0,0,0,.211.37Z" transform="translate(-53.434 0)" fill="#cbb461"/>
</svg>
