<svg xmlns="http://www.w3.org/2000/svg" width="13.253" height="13.464" viewBox="0 0 13.253 13.464">
  <g id="radio-menu" transform="translate(-2.05 0)">
    <path id="Path_23258" data-name="Path 23258" d="M14.147,3.972H4.855L12.494.74a.385.385,0,0,0-.3-.71L2.853,3.982a.384.384,0,0,0-.138.1A1.157,1.157,0,0,0,2.05,5.128v7.18a1.157,1.157,0,0,0,1.156,1.156H14.147A1.157,1.157,0,0,0,15.3,12.308V5.128A1.157,1.157,0,0,0,14.147,3.972Zm.385,8.336a.386.386,0,0,1-.385.385H3.206a.386.386,0,0,1-.385-.385V5.128a.386.386,0,0,1,.385-.385H14.147a.386.386,0,0,1,.385.385v7.18Z" transform="translate(0 0)" fill="#e2c65a"/>
    <path id="Path_23259" data-name="Path 23259" d="M31.986,116.59a2.574,2.574,0,1,0,2.574,2.574A2.577,2.577,0,0,0,31.986,116.59Zm0,4.376a1.8,1.8,0,1,1,1.8-1.8A1.8,1.8,0,0,1,31.986,120.966Z" transform="translate(-25.956 -110.6)" fill="#fff"/>
    <path id="Path_23260" data-name="Path 23260" d="M145.952,116.471a.514.514,0,0,0,.514-.514v-1.446a.514.514,0,0,0-.514-.514h-3.5a.514.514,0,0,0-.514.514v1.446a.514.514,0,0,0,.514.514Zm0-.514v0Zm-3.5-1.446h3.5v1.446h-3.5v-1.446Z" transform="translate(-132.698 -108.141)" fill="#fff"/>
    <path id="Path_23261" data-name="Path 23261" d="M146.892,176.264h-.318a.385.385,0,0,0,0,.771h.318a.385.385,0,1,0,0-.771Z" transform="translate(-136.732 -167.208)" fill="#e2c65a"/>
    <path id="Path_23262" data-name="Path 23262" d="M178.835,176.264h-.318a.385.385,0,0,0,0,.771h.318a.385.385,0,0,0,0-.771Z" transform="translate(-167.034 -167.208)" fill="#e2c65a"/>
    <path id="Path_23263" data-name="Path 23263" d="M210.778,176.264h-.318a.385.385,0,0,0,0,.771h.318a.385.385,0,0,0,0-.771Z" transform="translate(-197.336 -167.208)" fill="#e2c65a"/>
    <path id="Path_23264" data-name="Path 23264" d="M146.892,198.508h-.318a.385.385,0,1,0,0,.771h.318a.385.385,0,1,0,0-.771Z" transform="translate(-136.732 -188.309)" fill="#e2c65a"/>
    <path id="Path_23265" data-name="Path 23265" d="M178.835,198.508h-.318a.385.385,0,0,0,0,.771h.318a.385.385,0,0,0,0-.771Z" transform="translate(-167.034 -188.309)" fill="#e2c65a"/>
    <path id="Path_23266" data-name="Path 23266" d="M210.778,198.508h-.318a.385.385,0,0,0,0,.771h.318a.385.385,0,1,0,0-.771Z" transform="translate(-197.336 -188.309)" fill="#e2c65a"/>
  </g>
</svg>
