<svg xmlns="http://www.w3.org/2000/svg" width="19.981" height="19.981" viewBox="0 0 19.981 19.981">
  <g id="search-icon" transform="translate(-0.006)">
    <g id="_x34__4_" transform="translate(0.006)">
      <g id="Group_8291" data-name="Group 8291" transform="translate(0)">
        <path id="Path_23226" data-name="Path 23226" d="M19.8,18.894l-5.159-5.076A8.16,8.16,0,0,0,16.82,8.273,8.341,8.341,0,0,0,8.413,0,8.34,8.34,0,0,0,.006,8.273a8.34,8.34,0,0,0,8.407,8.273A8.454,8.454,0,0,0,13.7,14.7l5.179,5.1a.654.654,0,0,0,.914,0A.63.63,0,0,0,19.8,18.894ZM8.413,15.273a7.057,7.057,0,0,1-7.113-7,7.057,7.057,0,0,1,7.113-7,7.057,7.057,0,0,1,7.113,7A7.057,7.057,0,0,1,8.413,15.273Z" transform="translate(-0.006 0)" fill="#dfc155"/>
      </g>
    </g>
  </g>
</svg>
