<svg xmlns="http://www.w3.org/2000/svg" width="14.25" height="14.25" viewBox="0 0 14.25 14.25">
  <g id="settings-menu" transform="translate(0)">
    <path id="Path_23245" data-name="Path 23245" d="M7.572,14.25H6.678a1.313,1.313,0,0,1-1.312-1.312v-.3a5.753,5.753,0,0,1-.893-.371l-.214.214a1.312,1.312,0,0,1-1.855,0l-.632-.632a1.312,1.312,0,0,1,0-1.855l.214-.214a5.753,5.753,0,0,1-.371-.893h-.3A1.313,1.313,0,0,1,0,7.572V6.678A1.313,1.313,0,0,1,1.312,5.366h.3a5.754,5.754,0,0,1,.371-.893l-.214-.214a1.312,1.312,0,0,1,0-1.855L2.4,1.771a1.312,1.312,0,0,1,1.855,0l.214.214a5.758,5.758,0,0,1,.893-.371v-.3A1.313,1.313,0,0,1,6.678,0h.894A1.313,1.313,0,0,1,8.884,1.312v.3a5.753,5.753,0,0,1,.893.371l.214-.214a1.312,1.312,0,0,1,1.855,0l.632.632a1.312,1.312,0,0,1,0,1.855l-.214.214a5.753,5.753,0,0,1,.371.893h.3A1.313,1.313,0,0,1,14.25,6.678v.894a1.313,1.313,0,0,1-1.312,1.312h-.3a5.754,5.754,0,0,1-.371.893l.214.214a1.312,1.312,0,0,1,0,1.855l-.632.632a1.312,1.312,0,0,1-1.855,0l-.214-.214a5.758,5.758,0,0,1-.893.371v.3A1.313,1.313,0,0,1,7.572,14.25Zm-2.96-2.862a4.921,4.921,0,0,0,1.276.53.417.417,0,0,1,.313.4v.616a.477.477,0,0,0,.477.477h.894a.477.477,0,0,0,.477-.477v-.616a.417.417,0,0,1,.313-.4,4.921,4.921,0,0,0,1.276-.53.417.417,0,0,1,.508.064l.437.437a.477.477,0,0,0,.674,0l.633-.633a.477.477,0,0,0,0-.674l-.437-.437a.418.418,0,0,1-.064-.508,4.92,4.92,0,0,0,.529-1.276.417.417,0,0,1,.4-.313h.616a.477.477,0,0,0,.477-.477V6.678a.477.477,0,0,0-.477-.477h-.616a.417.417,0,0,1-.4-.313,4.921,4.921,0,0,0-.529-1.276.418.418,0,0,1,.064-.508l.437-.437a.477.477,0,0,0,0-.674l-.632-.632a.477.477,0,0,0-.674,0l-.437.437a.417.417,0,0,1-.508.064,4.921,4.921,0,0,0-1.276-.53.417.417,0,0,1-.313-.4V1.312A.477.477,0,0,0,7.572.835H6.678a.477.477,0,0,0-.477.477v.616a.417.417,0,0,1-.313.4,4.921,4.921,0,0,0-1.276.53A.418.418,0,0,1,4.1,2.8l-.437-.437a.477.477,0,0,0-.674,0l-.633.633a.477.477,0,0,0,0,.674L2.8,4.1a.418.418,0,0,1,.064.508,4.92,4.92,0,0,0-.529,1.276.417.417,0,0,1-.4.313H1.312a.477.477,0,0,0-.477.477v.894a.477.477,0,0,0,.477.477h.616a.417.417,0,0,1,.4.313,4.921,4.921,0,0,0,.529,1.276.418.418,0,0,1-.064.508l-.437.437a.477.477,0,0,0,0,.674l.632.632a.477.477,0,0,0,.674,0l.437-.437a.419.419,0,0,1,.508-.064Z" fill="#e0c257"/>
    <path id="Path_23246" data-name="Path 23246" d="M147.7,150.8a3.1,3.1,0,1,1,3.1-3.1A3.1,3.1,0,0,1,147.7,150.8Zm0-5.366a2.266,2.266,0,1,0,2.266,2.266A2.268,2.268,0,0,0,147.7,145.435Z" transform="translate(-140.575 -140.575)" fill="#e0c257"/>
  </g>
</svg>
