<svg xmlns="http://www.w3.org/2000/svg" width="14.833" height="15.822" viewBox="0 0 14.833 15.822">
  <g id="share-icon" transform="translate(-16)">
    <g id="Group_8299" data-name="Group 8299" transform="translate(16)">
      <path id="Path_23250" data-name="Path 23250" d="M28.052,10.26a2.779,2.779,0,0,0-2.237,1.13L21.45,9.159a2.781,2.781,0,0,0-.09-1.827l4.575-2.749a2.77,2.77,0,1,0-.476-.8L20.872,6.543a2.781,2.781,0,1,0,.17,3.449L25.4,12.216a2.781,2.781,0,1,0,2.656-1.957Zm0-9.333A1.854,1.854,0,1,1,26.2,2.781,1.856,1.856,0,0,1,28.052.927Zm-9.271,9.3a1.854,1.854,0,1,1,1.854-1.854A1.856,1.856,0,0,1,18.781,10.229ZM28.052,14.9a1.854,1.854,0,1,1,1.854-1.854A1.856,1.856,0,0,1,28.052,14.9Z" transform="translate(-16)" fill="#cbb461"/>
    </g>
  </g>
</svg>
