<svg xmlns="http://www.w3.org/2000/svg" width="9.785" height="11.133" viewBox="0 0 9.785 11.133">
  <g id="support-icon" transform="translate(-31)">
    <g id="Group_11807" data-name="Group 11807" transform="translate(32.305 4.566)">
      <g id="Group_11806" data-name="Group 11806">
        <path id="Path_23273" data-name="Path 23273" d="M91.979,210a.98.98,0,0,0-.979.979v2.653a.979.979,0,0,0,1.957,0v-2.653A.98.98,0,0,0,91.979,210Z" transform="translate(-91 -210)" fill="#cbb461"/>
      </g>
    </g>
    <g id="Group_11809" data-name="Group 11809" transform="translate(31 5.27)">
      <g id="Group_11808" data-name="Group 11808">
        <path id="Path_23274" data-name="Path 23274" d="M31.652,242.641a1.618,1.618,0,0,1,.028-.275.977.977,0,0,0-.68.927v1.348a.977.977,0,0,0,.68.927,1.618,1.618,0,0,1-.028-.275Z" transform="translate(-31 -242.366)" fill="#cbb461"/>
      </g>
    </g>
    <g id="Group_11811" data-name="Group 11811" transform="translate(34.914 4.566)">
      <g id="Group_11810" data-name="Group 11810" transform="translate(0)">
        <path id="Path_23275" data-name="Path 23275" d="M214.588,210a.98.98,0,0,0-.979.979v2.653a.98.98,0,0,0,.979.979.966.966,0,0,0,.28-.046.977.977,0,0,1-.933.7H212.9a.979.979,0,1,0,0,.652h1.039a1.633,1.633,0,0,0,1.631-1.631v-3.305A.98.98,0,0,0,214.588,210Z" transform="translate(-211 -210)" fill="#cbb461"/>
      </g>
    </g>
    <g id="Group_11813" data-name="Group 11813" transform="translate(40.105 5.27)">
      <g id="Group_11812" data-name="Group 11812" transform="translate(0)">
        <path id="Path_23276" data-name="Path 23276" d="M449.722,242.366a1.617,1.617,0,0,1,.028.275v2.653a1.617,1.617,0,0,1-.028.275.976.976,0,0,0,.68-.927v-1.348A.976.976,0,0,0,449.722,242.366Z" transform="translate(-449.722 -242.366)" fill="#cbb461"/>
      </g>
    </g>
    <g id="Group_11815" data-name="Group 11815" transform="translate(31)">
      <g id="Group_11814" data-name="Group 11814">
        <path id="Path_23277" data-name="Path 23277" d="M35.893,0A4.9,4.9,0,0,0,31,4.893V4.9a1.615,1.615,0,0,1,.667-.3,4.235,4.235,0,0,1,8.451,0,1.616,1.616,0,0,1,.667.3V4.893A4.9,4.9,0,0,0,35.893,0Z" transform="translate(-31)" fill="#cbb461"/>
      </g>
    </g>
  </g>
</svg>
