<svg xmlns="http://www.w3.org/2000/svg" width="15.161" height="15.16" viewBox="0 0 15.161 15.16">
  <g id="tag-menu" transform="translate(0 0.001)">
    <path id="Path_23248" data-name="Path 23248" d="M13.529,0H7.775a.444.444,0,0,0-.314.13L.477,7.113a1.634,1.634,0,0,0,0,2.308l5.262,5.262a1.621,1.621,0,0,0,1.154.477h0a1.621,1.621,0,0,0,1.154-.477L15.03,7.7a.444.444,0,0,0,.13-.314V1.631A1.634,1.634,0,0,0,13.529,0Zm.744,7.2L7.419,14.054a.747.747,0,0,1-1.052,0L1.105,8.793a.745.745,0,0,1,0-1.052L7.959.888h5.57a.745.745,0,0,1,.744.744Zm0,0" transform="translate(0)" fill="#e0c257"/>
    <path id="Path_23249" data-name="Path 23249" d="M334.048,85.078a1.4,1.4,0,1,0,.987.409A1.387,1.387,0,0,0,334.048,85.078Zm.359,1.754a.507.507,0,1,1,.149-.359A.5.5,0,0,1,334.406,86.832Zm0,0" transform="translate(-322.802 -82.56)" fill="#fff"/>
  </g>
</svg>
