<svg xmlns="http://www.w3.org/2000/svg" width="15.32" height="12.668" viewBox="0 0 15.32 12.668">
  <g id="wallet-menu" transform="translate(0 -44.308)">
    <g id="Group_8315" data-name="Group 8315" transform="translate(0 44.308)">
      <g id="Group_8314" data-name="Group 8314">
        <path id="Path_23267" data-name="Path 23267" d="M13.11,44.308H2.21A2.212,2.212,0,0,0,0,46.518v8.249a2.212,2.212,0,0,0,2.21,2.21h10.9a2.212,2.212,0,0,0,2.21-2.21V46.518A2.212,2.212,0,0,0,13.11,44.308Zm1.326,7.66H11.2a1.326,1.326,0,1,1,0-2.652h3.241v2.652Zm0-3.535H11.2a2.21,2.21,0,1,0,0,4.419h3.241v1.915a1.327,1.327,0,0,1-1.326,1.326H2.21A1.327,1.327,0,0,1,.884,54.767V46.518A1.327,1.327,0,0,1,2.21,45.192h10.9a1.327,1.327,0,0,1,1.326,1.326Z" transform="translate(0 -44.308)" fill="#e2c65a"/>
      </g>
    </g>
    <g id="Group_8317" data-name="Group 8317" transform="translate(10.753 50.2)">
      <g id="Group_8316" data-name="Group 8316">
        <path id="Path_23268" data-name="Path 23268" d="M360.416,241.231h-.589a.442.442,0,0,0,0,.884h.589a.442.442,0,0,0,0-.884Z" transform="translate(-359.385 -241.231)" fill="#fff"/>
      </g>
    </g>
  </g>
</svg>
