<svg xmlns="http://www.w3.org/2000/svg" width="169.459" height="86.7" viewBox="0 0 169.459 86.7">
  <g id="wifi-icon" transform="translate(0)" opacity="0.9">
    <g id="Group_11799" data-name="Group 11799" transform="translate(48.302 60.815)">
      <path id="Path_23270" data-name="Path 23270" d="M517.492,190.44a6.78,6.78,0,0,1-4.81-1.992,35.07,35.07,0,0,0-49.632,0,6.8,6.8,0,1,1-9.619-9.619,48.677,48.677,0,0,1,68.871,0,6.8,6.8,0,0,1-4.81,11.612Z" transform="translate(-451.438 -164.555)" fill="#dbbc52"/>
    </g>
    <g id="Group_11800" data-name="Group 11800" transform="translate(24.015 30.408)">
      <path id="Path_23271" data-name="Path 23271" d="M424.532,158.3a6.8,6.8,0,0,1-4.809-11.612,82.95,82.95,0,0,1,117.444,0,6.8,6.8,0,1,1-9.62,9.619,69.4,69.4,0,0,0-98.205,0A6.783,6.783,0,0,1,424.532,158.3Z" transform="translate(-417.73 -122.352)" fill="#dbbc52"/>
    </g>
    <g id="Group_11801" data-name="Group 11801" transform="translate(0 0)">
      <path id="Path_23272" data-name="Path 23272" d="M547.055,126.057a6.783,6.783,0,0,1-4.81-1.992,103.264,103.264,0,0,0-146.235,0,6.8,6.8,0,1,1-9.619-9.619,116.869,116.869,0,0,1,165.474,0,6.8,6.8,0,0,1-4.81,11.611Z" transform="translate(-384.399 -80.148)" fill="#dbbc52"/>
    </g>
  </g>
</svg>
